<?xml version="1.0" encoding="utf-8"?>
<!-- Generator: Adobe Illustrator 23.0.1, SVG Export Plug-In . SVG Version: 6.00 Build 0)  -->
<svg version="1.1" xmlns="http://www.w3.org/2000/svg" xmlns:xlink="http://www.w3.org/1999/xlink" x="0px" y="0px"
	 viewBox="0 0 200 200" style="enable-background:new 0 0 200 200;" xml:space="preserve">
<style type="text/css">
	.sm2st0{fill:#FF8B24;}
	.sm2st1{fill:#383838;}
	.sm2st2{fill:none;stroke:#383838;stroke-width:11.7637;stroke-miterlimit:10;}
</style>
<g>
	
		<ellipse transform="matrix(0.7071 -0.7071 0.7071 0.7071 -41.2382 99.884)" class="sm2st0" cx="99.95" cy="99.72" rx="88.78" ry="88.78"/>
	<circle class="sm2st1" cx="74.65" cy="79.19" r="11.63"/>
	<circle class="sm2st1" cx="125.25" cy="79.19" r="11.63"/>
	
		<ellipse transform="matrix(0.7071 -0.7071 0.7071 0.7071 -41.2382 99.884)" class="sm2st2" cx="99.95" cy="99.72" rx="88.78" ry="88.78"/>
	<g>
		<path class="sm2st1" d="M124.06,141.07c-0.9,0-1.81-0.21-2.67-0.64c-14.02-7.14-30.76-7.14-44.78,0c-2.89,1.47-6.44,0.32-7.91-2.57
			c-1.47-2.89-0.32-6.44,2.57-7.91c17.36-8.85,38.1-8.85,55.46,0c2.89,1.47,4.05,5.02,2.57,7.91
			C128.27,139.9,126.2,141.07,124.06,141.07z"/>
	</g>
</g>
</svg>
