<?xml version="1.0" encoding="utf-8"?>
<!-- Generator: Adobe Illustrator 23.0.1, SVG Export Plug-In . SVG Version: 6.00 Build 0)  -->
<svg version="1.1" id="Layer_1" xmlns="http://www.w3.org/2000/svg" xmlns:xlink="http://www.w3.org/1999/xlink" x="0px" y="0px"
	 viewBox="0 0 200 200" style="enable-background:new 0 0 200 200;" xml:space="preserve">
<style type="text/css">
	.sm4st0{fill:#80E611;}
	.sm4st1{fill:#383838;}
	.sm4st2{fill:none;stroke:#383838;stroke-width:11.7637;stroke-miterlimit:10;}
</style>
<g>
	
		<ellipse transform="matrix(0.7071 -0.7071 0.7071 0.7071 -41.2098 99.9525)" class="sm4st0" cx="100.05" cy="99.72" rx="88.78" ry="88.78"/>
	<g>
		<path class="sm4st1" d="M99.1,147.06c-9.52,0-19.05-2.21-27.73-6.64c-2.89-1.47-4.05-5.02-2.57-7.91c1.47-2.89,5.02-4.05,7.91-2.57
			c14.02,7.14,30.76,7.14,44.78,0c2.89-1.48,6.44-0.32,7.91,2.57c1.47,2.89,0.32,6.44-2.57,7.91
			C118.15,144.85,108.63,147.06,99.1,147.06z"/>
	</g>
	<circle class="sm4st1" cx="74.74" cy="79.19" r="11.63"/>
	<circle class="sm4st1" cx="125.35" cy="79.19" r="11.63"/>
	
		<ellipse transform="matrix(0.7071 -0.7071 0.7071 0.7071 -41.2098 99.9525)" class="sm4st2" cx="100.05" cy="99.72" rx="88.78" ry="88.78"/>
</g>
</svg>
