<?xml version="1.0" encoding="utf-8"?>
<!-- Generator: Adobe Illustrator 23.0.1, SVG Export Plug-In . SVG Version: 6.00 Build 0)  -->
<svg version="1.1" xmlns="http://www.w3.org/2000/svg" xmlns:xlink="http://www.w3.org/1999/xlink" x="0px" y="0px"
	 viewBox="0 0 200 200" style="enable-background:new 0 0 200 200;" xml:space="preserve">
<style type="text/css">
	.sm1st0{fill:#FF1D25;}
	.sm1st1{fill:#383838;}
	.sm1st2{fill:none;stroke:#383838;stroke-width:11.7637;stroke-miterlimit:10;}
</style>
<g>
	
		<ellipse transform="matrix(0.7071 -0.7071 0.7071 0.7071 -41.2524 99.8497)" class="sm1st0" cx="99.9" cy="99.72" rx="88.78" ry="88.78"/>
	<circle class="sm1st1" cx="74.6" cy="79.19" r="11.63"/>
	<circle class="sm1st1" cx="125.21" cy="79.19" r="11.63"/>
	<g>
		<path class="sm1st1" d="M124.02,141.07c-1.79,0-3.55-0.81-4.71-2.35c-4.85-6.46-12.27-10.17-20.35-10.17s-15.5,3.71-20.35,10.17
			c-1.95,2.6-5.64,3.12-8.24,1.17c-2.6-1.95-3.12-5.64-1.17-8.24c7.1-9.45,17.94-14.87,29.76-14.87c11.82,0,22.67,5.42,29.76,14.87
			c1.95,2.6,1.43,6.28-1.17,8.24C126.49,140.68,125.25,141.07,124.02,141.07z"/>
	</g>
	
		<ellipse transform="matrix(0.7071 -0.7071 0.7071 0.7071 -41.2524 99.8497)" class="sm1st2" cx="99.9" cy="99.72" rx="88.78" ry="88.78"/>
</g>
</svg>
