<?xml version="1.0" encoding="utf-8"?>
<!-- Generator: Adobe Illustrator 23.0.1, SVG Export Plug-In . SVG Version: 6.00 Build 0)  -->
<svg version="1.1" id="Layer_1" xmlns="http://www.w3.org/2000/svg" xmlns:xlink="http://www.w3.org/1999/xlink" x="0px" y="0px"
	 viewBox="0 0 200 200" style="enable-background:new 0 0 200 200;" xml:space="preserve">
<style type="text/css">
	.sm5st0{fill:#00D300;}
	.sm5st1{fill:#383838;}
	.sm5st2{fill:none;stroke:#383838;stroke-width:11.7637;stroke-miterlimit:10;}
</style>
<g>
	
		<ellipse transform="matrix(0.7071 -0.7071 0.7071 0.7071 -41.1956 99.9869)" class="sm5st0" cx="100.1" cy="99.72" rx="88.78" ry="88.78"/>
	<g>
		<path class="sm5st1" d="M99.15,153.59c-11.82,0-22.67-5.42-29.76-14.87c-1.95-2.6-1.43-6.28,1.17-8.24c2.6-1.95,6.28-1.43,8.24,1.17
			c4.85,6.46,12.27,10.17,20.35,10.17s15.5-3.71,20.35-10.17c1.95-2.6,5.64-3.12,8.24-1.17c2.6,1.95,3.12,5.64,1.17,8.24
			C121.82,148.17,110.97,153.59,99.15,153.59z"/>
	</g>
	<circle class="sm5st1" cx="74.79" cy="79.19" r="11.63"/>
	<circle class="sm5st1" cx="125.4" cy="79.19" r="11.63"/>
	
		<ellipse transform="matrix(0.7071 -0.7071 0.7071 0.7071 -41.1956 99.9869)" class="sm5st2" cx="100.1" cy="99.72" rx="88.78" ry="88.78"/>
</g>
</svg>
